<svg width="16" height="16" viewBox="0 0 16 16" fill="none" xmlns="http://www.w3.org/2000/svg">
<path d="M12.5006 7.83344V13.6669H3.16699V7.83344" stroke="#1E323D" stroke-width="1.75005" stroke-linecap="round" stroke-linejoin="round"/>
<path d="M13.667 4.91656H2V7.83331H13.667V4.91656Z" stroke="#1E323D" stroke-width="1.75005" stroke-linecap="round" stroke-linejoin="round"/>
<path d="M7.83398 13.6668V4.91656" stroke="#1E323D" stroke-width="1.75005" stroke-linecap="round" stroke-linejoin="round"/>
<path d="M7.83345 4.91675H5.20837C4.82159 4.91675 4.45065 4.7631 4.17715 4.4896C3.90365 4.2161 3.75 3.84516 3.75 3.45837C3.75 3.07159 3.90365 2.70065 4.17715 2.42715C4.45065 2.15365 4.82159 2 5.20837 2C7.2501 2 7.83345 4.91675 7.83345 4.91675Z" stroke="#1E323D" stroke-width="1.75005" stroke-linecap="round" stroke-linejoin="round"/>
<path d="M7.83398 4.91675H10.4591C10.8458 4.91675 11.2168 4.7631 11.4903 4.4896C11.7638 4.2161 11.9174 3.84516 11.9174 3.45837C11.9174 3.07159 11.7638 2.70065 11.4903 2.42715C11.2168 2.15365 10.8458 2 10.4591 2C8.41733 2 7.83398 4.91675 7.83398 4.91675Z" stroke="#1E323D" stroke-width="1.75005" stroke-linecap="round" stroke-linejoin="round"/>
</svg>