
   
<!-- Generated by IcoMoon.io -->
<svg version="1.1" xmlns="http://www.w3.org/2000/svg" width="1008" height="1024" viewBox="0 0 1008 1024">
<title></title>
<g id="icomoon-ignore">
</g>
<path d="M503.147 1012.053c-274.773 0-498.347-223.573-498.347-500.053s223.573-500.053 498.347-500.053 500.053 223.573 500.053 500.053c0 276.48-223.573 500.053-500.053 500.053zM503.147 104.107c-223.573 0-406.187 182.614-406.187 407.893s182.614 407.893 407.893 407.893 406.187-182.614 406.187-407.893c0-225.28-182.614-407.893-407.893-407.893z"></path>
<path d="M620.907 418.133c0 66.56-54.613 119.467-121.173 119.467s-121.173-52.907-121.173-119.467 54.613-119.467 121.173-119.467 121.173 54.613 121.173 119.467zM723.307 670.72c-35.84-32.427-109.227-83.627-213.333-85.333-105.813-1.707-186.027 52.907-225.28 85.333-15.36 13.653-17.067 35.84-1.707 51.2 34.133 32.427 104.107 81.92 221.868 81.92s187.733-51.2 221.868-83.627c13.653-13.653 11.947-35.84-3.413-49.493z"></path>
</svg>