<!-- Generated by IcoMoon.io -->
<svg version="1.1" xmlns="http://www.w3.org/2000/svg" width="1008" height="1024" viewBox="0 0 1008 1024">
<title></title>
<g id="icomoon-ignore">
</g>
<path d="M922.82 1023.128c-20.934 0-40.122-8.722-55.823-24.422l-163.98-165.724c-31.4-31.4-29.656-81.99 0-111.646 31.4-31.4 81.99-29.656 111.646 0l163.98 165.724c31.4 31.4 29.656 81.99 0 111.646-15.7 17.445-34.889 24.422-55.823 24.422z"></path>
<path d="M453.559 906.25c-249.458 0-453.561-202.358-453.561-453.561s202.358-453.561 453.561-453.561c249.458 0 453.561 202.358 453.561 453.561s-204.102 453.561-453.561 453.561zM453.559 159.618c-162.235 0-294.815 132.58-294.815 294.815s132.58 294.815 294.815 294.815c162.235 0 294.815-132.58 294.815-294.815s-132.58-294.815-294.815-294.815z"></path>
</svg>